# WaveFront *.obj file (generated by Autodesk ATF)

mtllib citbinHalterung.mtl

g Körper12

v 5.600000 5.990000 0.500000
v 5.217935 5.990000 0.771995
v 4.780885 5.990000 0.942117
v 4.315477 5.990000 1.000000
v 4.315477 0.250000 1.000000
v 4.315477 -5.490000 1.000000
v 4.780885 -5.490000 0.942117
v 5.217935 -5.490000 0.771995
v 5.600000 -5.490000 0.500000
v 5.600000 0.250000 0.500000
v 5.217935 0.250000 0.771995
v 4.780885 0.250000 0.942117
v 3.240000 5.990000 1.000000
v 3.240000 5.490000 1.000000
v 2.764590 5.490000 1.000000
v 2.764590 2.429379 1.000000
v 3.555560 2.429379 1.000000
v 3.380629 1.572902 1.000000
v 3.275214 0.705123 1.000000
v 3.240000 -0.168326 1.000000
v 3.240000 -5.490000 1.000000
v 2.740000 5.990000 1.000000
v 2.740000 5.990000 3.620000
v -2.740000 5.990000 3.620000
v -2.740000 5.990000 1.000000
v -5.600000 5.990000 0.500000
v -5.217935 5.990000 0.771995
v -4.780885 5.990000 0.942117
v -4.315477 5.990000 1.000000
v -3.240000 5.990000 1.000000
v -3.240000 5.990000 4.050000
v 3.240000 5.990000 4.050000
v -5.600000 -5.490000 0.500000
v -5.217935 -5.490000 0.771995
v -4.780885 -5.490000 0.942117
v -4.315477 -5.490000 1.000000
v -4.315477 0.250000 1.000000
v -5.600000 0.250000 0.500000
v -5.217935 0.250000 0.771995
v -4.780885 0.250000 0.942117
v -3.240000 -5.490000 1.000000
v -3.240000 -0.168326 1.000000
v -3.275214 0.705123 1.000000
v -3.380629 1.572902 1.000000
v -3.555560 2.429379 1.000000
v -2.764590 2.429379 1.000000
v -2.764590 5.490000 1.000000
v -3.240000 5.490000 1.000000
v 3.400000 -5.490000 3.895000
v 3.400000 -5.620479 3.838958
v 3.400000 -5.732261 3.751377
v 3.400000 -5.817893 3.638096
v 3.400000 -5.871668 3.506667
v 3.400000 -5.890000 3.365850
v 2.749057 -5.890000 3.365850
v 2.745985 -5.886442 3.428307
v 2.742953 -5.875815 3.489956
v 2.740000 -5.858255 3.550000
v 2.740000 -5.800144 3.667126
v 2.740000 -5.716029 3.767225
v 2.740000 -5.610662 3.844642
v 2.740000 -5.490000 3.895000
v 3.400000 -5.890000 2.959150
v 2.769058 -5.890000 2.959150
v -2.740000 -5.858255 3.550000
v -2.742953 -5.875815 3.489956
v -2.745985 -5.886442 3.428307
v -2.749057 -5.890000 3.365850
v -3.240000 -5.890000 3.365850
v -3.240000 -5.871668 3.506667
v -3.240000 -5.817893 3.638096
v -3.240000 -5.732261 3.751377
v -3.240000 -5.620479 3.838958
v -3.240000 -5.490000 3.895000
v -2.740000 -5.490000 3.895000
v -2.740000 -5.610662 3.844642
v -2.740000 -5.716029 3.767225
v -2.740000 -5.800144 3.667126
v 2.795082 -5.490000 2.430000
v 2.792326 -5.620479 2.486042
v 2.788019 -5.732261 2.573623
v 2.782447 -5.817893 2.686904
v 2.775984 -5.871668 2.818333
v 3.400000 -5.871668 2.818333
v 3.400000 -5.817893 2.686904
v 3.400000 -5.732261 2.573623
v 3.400000 -5.620479 2.486042
v 3.400000 -5.490000 2.430000
v -3.240000 -5.490000 2.430000
v -3.240000 -5.620479 2.486042
v -3.240000 -5.732261 2.573623
v -3.240000 -5.817893 2.686904
v -3.240000 -5.871668 2.818333
v -3.240000 -5.890000 2.959150
v -2.769058 -5.890000 2.959150
v -2.775984 -5.871668 2.818333
v -2.782447 -5.817893 2.686904
v -2.788019 -5.732261 2.573623
v -2.792326 -5.620479 2.486042
v -2.795082 -5.490000 2.430000
v 3.240000 -3.740000 4.050000
v 3.240000 -6.290000 4.050000
v 3.540000 -6.290000 4.050000
v 3.540000 -5.440000 4.050000
v 3.539756 -5.440000 4.050000
v 3.240000 -3.740000 2.532172
v 3.240000 2.429379 3.620000
v 3.240000 5.490000 3.620000
v 3.540000 -6.290000 2.801962
v 3.540000 -6.178580 2.649789
v 3.540000 -6.074746 2.492343
v 3.540000 -5.978747 2.330000
v 3.540000 -5.440000 2.330000
v 3.240000 -5.978747 2.330000
v 3.240000 -4.886575 2.330000
v 3.442172 -4.886575 2.330000
v 3.539756 -5.440000 2.330000
v 3.240000 -5.715043 1.749931
v 3.240000 -5.550626 1.134313
v 3.240000 -5.490000 0.500007
v 3.240000 -0.168326 1.458046
v 3.240000 -5.000000 2.310000
v 2.776789 -6.290000 2.801962
v 3.072328 -6.290000 4.044371
v 2.905410 -6.290000 4.027509
v 2.740000 -6.290000 3.999490
v 2.740000 -6.290000 3.550000
v -3.342172 -4.319446 2.430000
v -3.539756 -5.440000 2.430000
v -3.539756 -5.440000 3.850000
v -3.240000 -3.740000 3.850000
v -3.240000 -3.740000 2.532172
v -3.240000 -5.490000 3.850000
v -3.240000 -4.319446 2.430000
v -3.240000 -5.000000 2.310000
v -3.240000 -0.168326 1.458046
v -3.240000 -5.490000 0.500007
v -3.240000 -5.547475 1.116575
v -3.240000 -5.703056 1.715953
v -3.240000 -5.952717 2.282636
v -3.240000 -6.290000 2.801962
v -3.240000 -6.290000 4.050000
v -3.240000 -0.150000 4.050000
v -3.240000 5.490000 3.620000
v -3.240000 2.429379 3.620000
v -3.540000 -5.440000 2.430000
v -3.540000 -5.440000 3.850000
v -3.540000 -5.490000 2.430000
v -3.540000 -5.490000 3.850000
v 3.380629 1.572902 1.151020
v 3.275214 0.705123 1.304033
v -3.275214 0.705123 1.304033
v -3.380629 1.572902 1.151020
v 2.815000 -3.383685 2.025000
v 2.800984 -5.000000 2.310000
v 2.740000 -0.700000 3.068206
v 2.763695 -0.700000 3.068206
v 2.740000 -0.700000 3.550000
v 2.740000 -5.490000 3.550000
v 2.740000 -5.490000 3.620000
v 2.740000 2.429379 3.620000
v 1.838180 -5.490000 3.620000
v 1.838180 4.588180 3.620000
v -1.838180 4.588180 3.620000
v -1.838180 -5.490000 3.620000
v -2.740000 -5.490000 3.620000
v -2.740000 2.429379 3.620000
v -2.740000 5.490000 3.620000
v 2.740000 5.490000 3.620000
v -2.740000 2.032389 3.550000
v -2.800984 -5.000000 2.310000
v -2.815000 -3.383685 2.025000
v 2.740000 -5.490000 3.999490
v 2.423604 -5.490000 3.912942
v 2.121262 -5.490000 3.785716
v -2.740000 -5.490000 3.550000
v -2.740000 5.490000 0.500000
v 2.740000 5.490000 0.500000
v 2.740000 5.490000 1.000000
v -2.740000 5.490000 1.000000
v 3.240000 -5.490000 0.500000
v -3.240000 -5.490000 0.500000
v 2.740000 -5.490000 0.500000
v -2.740000 -5.490000 0.500000
v -2.815000 -5.825658 2.025000
v -2.790829 -5.644700 1.533524
v -2.765674 -5.532120 1.022035
v -2.801677 -5.959915 2.295891
v -2.788914 -6.115014 2.555412
v -2.776789 -6.290000 2.801962
v 2.788914 -6.115014 2.555412
v 2.801677 -5.959915 2.295891
v 2.815000 -5.825658 2.025000
v 2.790829 -5.644700 1.533524
v 2.765674 -5.532120 1.022035
v -2.740000 -5.490000 3.999490
v -2.740000 -6.290000 3.999490
v -2.740000 -6.290000 3.550000
v -2.905410 -6.290000 4.027509
v -3.072328 -6.290000 4.044371
v -2.121262 -5.490000 3.785716
v -2.423604 -5.490000 3.912942
v 2.869331 5.619331 4.022368
v 2.506856 5.256856 3.940084
v 2.160587 4.910587 3.804965
v 2.747195 -0.150000 4.000947
v 2.273728 -0.150000 3.855714
v -2.869331 5.619331 4.022368
v -2.506856 5.256856 3.940084
v -2.160587 4.910587 3.804965
v -2.747195 -0.150000 4.000947
v -2.273728 -0.150000 3.855714
vt 11.480000 -0.000000 0.000000
vt 11.480000 0.470192 0.000000
vt 5.740000 -0.000000 0.000000
vt 5.740000 0.470192 0.000000
vt -0.000000 -0.000000 0.000000
vt -0.000000 0.470192 0.000000
vt -0.000000 0.940385 0.000000
vt 5.740000 0.940385 0.000000
vt -0.000000 1.410577 0.000000
vt 5.740000 1.410577 0.000000
vt 11.480000 0.940385 0.000000
vt 11.480000 1.410577 0.000000
vt 0.500000 0.000000 0.000000
vt -0.575477 0.000000 0.000000
vt 0.500000 -5.321674 0.000000
vt -0.575477 -5.740000 0.000000
vt 0.359371 -7.062902 0.000000
vt 0.184440 -7.919379 0.000000
vt -0.575477 -11.480000 0.000000
vt 0.500000 -11.480000 0.000000
vt 0.500000 -10.980000 0.000000
vt 0.975410 -7.919379 0.000000
vt 0.975410 -10.980000 0.000000
vt 0.464786 -6.195123 0.000000
vt 0.500000 3.620000 0.000000
vt 0.000000 1.000000 0.000000
vt 0.500000 1.000000 0.000000
vt -2.360000 0.500000 0.000000
vt 8.840000 0.500000 0.000000
vt 0.000000 4.050000 0.000000
vt 5.980000 3.620000 0.000000
vt 6.480000 4.050000 0.000000
vt 6.480000 1.000000 0.000000
vt 5.980000 1.000000 0.000000
vt -1.540885 0.942117 0.000000
vt -1.977935 0.771995 0.000000
vt -1.075477 1.000000 0.000000
vt 8.457935 0.771995 0.000000
vt 7.555477 1.000000 0.000000
vt 8.020885 0.942117 0.000000
vt -5.740000 -0.000000 0.000000
vt -0.000000 -0.000000 0.000000
vt -5.740000 0.470192 0.000000
vt 0.000000 0.470192 0.000000
vt -5.740000 0.940385 0.000000
vt 0.000000 0.940385 0.000000
vt -0.000000 1.410577 0.000000
vt -5.740000 1.410577 0.000000
vt -11.480000 0.940385 0.000000
vt -11.480000 0.470192 0.000000
vt -11.480000 -0.000000 0.000000
vt -11.480000 1.410577 0.000000
vt -10.990000 0.000000 0.000000
vt -10.990000 -1.075477 0.000000
vt -7.429379 -0.315560 0.000000
vt -5.250000 -1.075477 0.000000
vt -6.572902 -0.140629 0.000000
vt -4.831674 0.000000 0.000000
vt -5.705123 -0.035214 0.000000
vt 0.490000 -1.075477 0.000000
vt 0.490000 0.000000 0.000000
vt -10.490000 0.000000 0.000000
vt -7.429379 0.475410 0.000000
vt -10.490000 0.475410 0.000000
vt -0.350000 0.000000 0.000000
vt 0.310000 0.000000 0.000000
vt -0.350000 0.131059 0.000000
vt 0.310000 0.142403 0.000000
vt -0.350000 0.262118 0.000000
vt 0.310000 0.284805 0.000000
vt -0.350000 0.393177 0.000000
vt 0.310000 0.427208 0.000000
vt -0.350000 0.524236 0.000000
vt 0.310000 0.569611 0.000000
vt -0.347047 0.586829 0.000000
vt -0.344015 0.649421 0.000000
vt 0.310000 0.712013 0.000000
vt -0.340943 0.712013 0.000000
vt 0.584150 0.490943 0.000000
vt 0.584150 -0.160000 0.000000
vt 0.990850 0.470942 0.000000
vt 0.990850 -0.160000 0.000000
vt -2.742953 0.586829 0.000000
vt -3.240000 0.569611 0.000000
vt -2.740000 0.524236 0.000000
vt -3.240000 0.427208 0.000000
vt -2.740000 0.393177 0.000000
vt -3.240000 0.284805 0.000000
vt -2.740000 0.262118 0.000000
vt -3.240000 0.142403 0.000000
vt -2.740000 0.131059 0.000000
vt -3.240000 0.000000 0.000000
vt -2.740000 0.000000 0.000000
vt -2.745985 0.649421 0.000000
vt -3.240000 0.712013 0.000000
vt -2.749057 0.712013 0.000000
vt -0.310000 0.000000 0.000000
vt 0.294918 0.000000 0.000000
vt -0.310000 0.142403 0.000000
vt 0.297674 0.142403 0.000000
vt -0.310000 0.284805 0.000000
vt 0.301981 0.284805 0.000000
vt -0.310000 0.427208 0.000000
vt 0.307553 0.427208 0.000000
vt -0.310000 0.569611 0.000000
vt 0.314016 0.569611 0.000000
vt -0.310000 0.712013 0.000000
vt 0.320942 0.712013 0.000000
vt 0.344167 -0.081668 0.000000
vt 0.475596 -0.027893 0.000000
vt 0.203350 -0.100000 0.000000
vt -0.203350 -0.100000 0.000000
vt -0.475596 -0.027893 0.000000
vt -0.344167 -0.081668 0.000000
vt -0.588877 0.057739 0.000000
vt 0.588877 0.057739 0.000000
vt -0.676458 0.169521 0.000000
vt 0.676458 0.169521 0.000000
vt -0.732500 0.300000 0.000000
vt 0.732500 0.300000 0.000000
vt 0.200000 0.000000 0.000000
vt 0.200000 0.142403 0.000000
vt -0.244918 0.000000 0.000000
vt -0.247674 0.142403 0.000000
vt 0.200000 0.284805 0.000000
vt -0.251981 0.284805 0.000000
vt 0.200000 0.427208 0.000000
vt -0.257553 0.427208 0.000000
vt 0.200000 0.569611 0.000000
vt -0.264016 0.569611 0.000000
vt 0.200000 0.712013 0.000000
vt -0.270942 0.712013 0.000000
vt 0.000000 1.750000 0.000000
vt 0.000000 -0.800000 0.000000
vt 0.299756 0.050000 0.000000
vt 0.300000 -0.800000 0.000000
vt 0.300000 0.050000 0.000000
vt 1.750000 2.532172 0.000000
vt 7.919379 3.620000 0.000000
vt 1.750000 4.050000 0.000000
vt 11.480000 4.050000 0.000000
vt 10.980000 3.620000 0.000000
vt 11.480000 1.000000 0.000000
vt 10.980000 1.000000 0.000000
vt 1.093038 -0.800000 0.000000
vt 1.245211 -0.688580 0.000000
vt -0.155000 -0.800000 0.000000
vt -0.155000 0.050000 0.000000
vt 1.402657 -0.584746 0.000000
vt 1.565000 -0.488747 0.000000
vt 1.565000 0.050000 0.000000
vt -0.000000 0.050000 0.000000
vt 0.000000 -0.488747 0.000000
vt 0.000244 0.050000 0.000000
vt 0.300000 -0.488747 0.000000
vt 0.097828 0.603425 0.000000
vt 0.300000 0.603425 0.000000
vt 0.603425 2.330000 0.000000
vt -0.488747 2.330000 0.000000
vt 0.490000 2.310000 0.000000
vt -0.225043 1.749931 0.000000
vt 5.321674 1.458046 0.000000
vt -0.060626 1.134313 0.000000
vt 5.321674 1.000000 0.000000
vt -0.000000 1.000000 0.000000
vt -0.000000 0.500007 0.000000
vt 0.360538 -0.663211 0.000000
vt 0.360538 0.100000 0.000000
vt -0.387500 -0.700000 0.000000
vt -0.887500 -0.200000 0.000000
vt -0.881871 -0.367672 0.000000
vt -0.887500 0.100000 0.000000
vt -0.865009 -0.534590 0.000000
vt -0.836990 -0.700000 0.000000
vt -0.950922 0.863113 0.000000
vt -2.468750 0.863113 0.000000
vt -0.748750 -0.301150 0.000000
vt -2.468750 -0.863113 0.000000
vt -0.748750 -0.863113 0.000000
vt -0.832500 0.149756 0.000000
vt 0.887500 0.149756 0.000000
vt -0.832500 0.150000 0.000000
vt 0.887500 0.150000 0.000000
vt 0.860000 -0.863113 0.000000
vt 2.280000 -0.863113 0.000000
vt 0.860000 0.274727 0.000000
vt 2.280000 0.863113 0.000000
vt 0.962172 0.863113 0.000000
vt 3.560621 3.620000 0.000000
vt 9.730000 2.532172 0.000000
vt 6.140000 4.050000 0.000000
vt 9.730000 3.850000 0.000000
vt 12.280000 4.050000 0.000000
vt 11.480000 3.895000 0.000000
vt 11.610479 3.838958 0.000000
vt 11.480000 3.850000 0.000000
vt 11.722261 3.751377 0.000000
vt 11.807893 3.638096 0.000000
vt 11.861668 3.506667 0.000000
vt 11.880000 3.365850 0.000000
vt 12.280000 2.801962 0.000000
vt 11.880000 2.959150 0.000000
vt 11.861668 2.818333 0.000000
vt 11.807893 2.686904 0.000000
vt 11.722261 2.573623 0.000000
vt 11.942717 2.282636 0.000000
vt 11.610479 2.486042 0.000000
vt 11.480000 2.430000 0.000000
vt 10.309446 2.430000 0.000000
vt 10.990000 2.310000 0.000000
vt 11.693056 1.715953 0.000000
vt 6.158326 1.458046 0.000000
vt 11.537475 1.116575 0.000000
vt 6.158326 1.000000 0.000000
vt 11.480000 1.000000 0.000000
vt 11.480000 0.500007 0.000000
vt 0.000000 4.050000 0.000000
vt 0.500000 3.620000 0.000000
vt 0.000000 1.000000 0.000000
vt 0.500000 1.000000 0.000000
vt 0.710000 -0.149756 0.000000
vt -0.710000 -0.149756 0.000000
vt 0.710000 -0.150000 0.000000
vt -0.710000 -0.150000 0.000000
vt 0.000000 0.000000 0.000000
vt 1.420000 0.000000 0.000000
vt 0.000000 0.050000 0.000000
vt 1.420000 0.050000 0.000000
vt 0.300000 0.000000 0.000000
vt 0.299756 0.050000 0.000000
vt 0.000000 0.000000 0.000000
vt 0.102172 1.170554 0.000000
vt 0.000000 1.170554 0.000000
vt 0.300000 0.050000 0.000000
vt 0.000000 0.050000 0.000000
vt 0.000000 0.000000 0.000000
vt 0.000244 0.050000 0.000000
vt 0.300000 0.000000 0.000000
vt 0.300000 1.750000 0.000000
vt -0.958046 -34.086280 0.000000
vt -0.500000 -34.086280 0.000000
vt -0.804033 -33.211885 0.000000
vt -0.500000 -33.211885 0.000000
vt -0.651020 -32.337490 0.000000
vt -0.500000 -32.337490 0.000000
vt -0.500000 -31.463095 0.000000
vt 0.500000 -31.463095 0.000000
vt 0.500000 -32.337490 0.000000
vt 0.651020 -32.337490 0.000000
vt 0.500000 -33.211885 0.000000
vt 0.804033 -33.211885 0.000000
vt 0.500000 -34.086280 0.000000
vt 0.958046 -34.086280 0.000000
vt 5.902740 6.055000 0.000000
vt 2.637779 6.480000 0.000000
vt 0.000000 6.004590 0.000000
vt 1.750856 6.515214 0.000000
vt 0.869689 6.620629 0.000000
vt 7.543989 6.040984 0.000000
vt 7.543989 6.480000 0.000000
vt 0.000000 6.795560 0.000000
vt 0.551794 5.980000 0.000000
vt 0.551794 6.003695 0.000000
vt 0.070000 5.980000 0.000000
vt -4.790000 -0.481794 0.000000
vt -4.790000 -0.000000 0.000000
vt -7.919379 0.070000 0.000000
vt -0.000000 0.070000 0.000000
vt -0.000000 0.000000 0.000000
vt 4.366334 5.980000 0.000000
vt 7.543989 5.980000 0.000000
vt 4.366334 6.003695 0.000000
vt 7.543989 6.480000 0.000000
vt 1.279438 6.480000 0.000000
vt 0.115175 6.682172 0.000000
vt 0.115175 6.480000 0.000000
vt 0.000000 6.040984 0.000000
vt 0.000000 6.480000 0.000000
vt -3.240000 5.490000 0.000000
vt -3.240000 2.429379 0.000000
vt -2.740000 5.490000 0.000000
vt -2.740000 2.429379 0.000000
vt -1.838180 4.588180 0.000000
vt -1.838180 -5.490000 0.000000
vt -2.740000 -5.490000 0.000000
vt -2.740000 5.990000 0.000000
vt 1.838180 4.588180 0.000000
vt 2.740000 5.990000 0.000000
vt 2.740000 5.490000 0.000000
vt 2.740000 2.429379 0.000000
vt 3.240000 5.490000 0.000000
vt 3.240000 2.429379 0.000000
vt 1.838180 -5.490000 0.000000
vt 2.740000 -5.490000 0.000000
vt -0.000000 0.439016 0.000000
vt 1.279438 0.000000 0.000000
vt 7.140875 0.500000 0.000000
vt 7.543989 0.000000 0.000000
vt 7.543989 0.500000 0.000000
vt 0.000000 0.000000 0.000000
vt 0.691052 0.000000 0.000000
vt 0.691052 -0.102172 0.000000
vt 0.000000 0.475410 0.000000
vt 2.637779 0.000000 0.000000
vt 5.902740 0.425000 0.000000
vt 7.543989 0.000000 0.000000
vt 7.543989 0.439016 0.000000
vt 0.000000 -0.315560 0.000000
vt 0.869689 -0.140629 0.000000
vt 1.750856 -0.035214 0.000000
vt 5.980000 3.895000 0.000000
vt 5.980000 3.620000 0.000000
vt 6.640000 3.895000 0.000000
vt 5.980000 3.550000 0.000000
vt 6.640000 2.430000 0.000000
vt 6.035082 2.430000 0.000000
vt 5.980000 3.999490 0.000000
vt 5.663604 3.912942 0.000000
vt 5.361262 3.785716 0.000000
vt 5.078180 3.620000 0.000000
vt 0.584150 5.989057 0.000000
vt 0.990850 6.009058 0.000000
vt 0.584150 6.480000 0.000000
vt 0.990850 6.480000 0.000000
vt -0.490000 0.000000 0.000000
vt 7.032389 -0.000000 0.000000
vt -0.490000 0.070000 0.000000
vt 7.429379 0.070000 0.000000
vt -0.500000 1.000000 0.000000
vt -0.024590 1.000000 0.000000
vt -0.500000 3.620000 0.000000
vt 0.000000 3.620000 0.000000
vt 0.000000 1.000000 0.000000
vt 0.000000 0.500000 0.000000
vt 5.480000 0.500000 0.000000
vt 5.480000 1.000000 0.000000
vt 5.504590 1.000000 0.000000
vt 5.480000 3.620000 0.000000
vt 5.980000 3.620000 0.000000
vt 5.980000 1.000000 0.000000
vt -0.500000 0.500000 0.000000
vt -0.500000 -1.860000 0.000000
vt -0.499993 0.500000 0.000000
vt -0.228005 -1.477935 0.000000
vt -0.057883 -1.040885 0.000000
vt 0.000000 -0.575477 0.000000
vt -0.000000 0.500000 0.000000
vt -0.000000 0.010789 0.000000
vt 0.000000 -1.064688 0.000000
vt 0.499993 0.010789 0.000000
vt 0.057883 -1.530096 0.000000
vt 0.228005 -1.967146 0.000000
vt 0.500000 -2.349211 0.000000
vt 0.500000 0.010789 0.000000
vt 5.600000 -5.740000 0.000000
vt 5.600000 0.000000 0.000000
vt 3.240000 -5.740000 0.000000
vt 2.740000 -5.740000 0.000000
vt 2.740000 5.240000 0.000000
vt 5.600000 5.740000 0.000000
vt -5.600000 5.740000 0.000000
vt -2.740000 5.240000 0.000000
vt -5.600000 0.000000 0.000000
vt -2.740000 -5.740000 0.000000
vt -3.240000 -5.740000 0.000000
vt -5.600000 -5.740000 0.000000
vt -1.526843 -0.335658 0.000000
vt -1.034773 -0.154700 0.000000
vt -1.526843 2.106315 0.000000
vt -0.500604 7.919379 0.000000
vt -0.522666 -0.042120 0.000000
vt -0.000000 0.000000 0.000000
vt -0.000000 10.980000 0.000000
vt -0.500604 10.980000 0.000000
vt -1.181677 1.874822 0.000000
vt -1.620000 1.859739 0.000000
vt -1.195000 1.572409 0.000000
vt -1.620000 1.239828 0.000000
vt -1.170829 1.048272 0.000000
vt -1.620000 0.619918 0.000000
vt -1.145674 0.524136 0.000000
vt -1.620000 0.000007 0.000000
vt -1.120000 0.000000 0.000000
vt -1.620000 0.000000 0.000000
vt -1.168914 2.177236 0.000000
vt -1.620000 2.479649 0.000000
vt -1.156789 2.479649 0.000000
vt 4.860000 0.000000 0.000000
vt 4.860000 0.000007 0.000000
vt 4.360000 0.000000 0.000000
vt 4.385674 0.524136 0.000000
vt 4.860000 0.637933 0.000000
vt 4.410829 1.048272 0.000000
vt 4.860000 1.275859 0.000000
vt 4.435000 1.572409 0.000000
vt 4.860000 1.913785 0.000000
vt 4.421677 1.874822 0.000000
vt 5.160000 2.102406 0.000000
vt 4.408914 2.177236 0.000000
vt 5.160000 2.291028 0.000000
vt 4.396789 2.479649 0.000000
vt 5.160000 2.479649 0.000000
vt 5.160000 1.913785 0.000000
vt 0.400000 0.345000 0.000000
vt 0.400000 0.449490 0.000000
vt 0.279338 0.294642 0.000000
vt -0.400000 0.449490 0.000000
vt 0.173971 0.217225 0.000000
vt 0.089856 0.117126 0.000000
vt -0.400000 0.000000 0.000000
vt 0.031745 -0.000000 0.000000
vt 1.649490 5.980000 0.000000
vt 1.677509 6.145410 0.000000
vt 1.200000 5.980000 0.000000
vt 0.451962 6.016789 0.000000
vt 1.694371 6.312328 0.000000
vt 0.451962 6.480000 0.000000
vt 1.700000 6.480000 0.000000
vt -0.500000 0.449490 0.000000
vt -0.379338 0.294642 0.000000
vt 0.300000 0.449490 0.000000
vt -0.273971 0.217225 0.000000
vt -0.189856 0.117126 0.000000
vt -0.500000 0.345000 0.000000
vt -0.131745 0.000000 0.000000
vt 0.300000 0.000000 0.000000
vt 0.000000 3.895000 0.000000
vt 0.000000 3.850000 0.000000
vt 0.500000 3.895000 0.000000
vt 0.500000 3.620000 0.000000
vt 0.816396 3.912942 0.000000
vt 1.118738 3.785716 0.000000
vt 1.401820 3.620000 0.000000
vt -0.300000 3.850000 0.000000
vt -0.300000 2.430000 0.000000
vt 0.000000 2.430000 0.000000
vt 0.500000 3.550000 0.000000
vt 0.444918 2.430000 0.000000
vt 0.500000 3.999490 0.000000
vt 0.070000 0.500000 0.000000
vt -2.550000 0.500000 0.000000
vt 0.070000 0.000000 0.000000
vt -2.550000 0.000000 0.000000
vt -0.000000 0.500000 0.000000
vt -2.620000 0.500000 0.000000
vt -0.000000 0.000000 0.000000
vt -2.620000 0.000000 0.000000
vt -0.000000 0.500000 0.000000
vt -5.480000 0.500000 0.000000
vt -0.000000 0.000000 0.000000
vt -5.480000 0.000000 0.000000
vt -0.794292 -0.381668 0.000000
vt -0.935279 -0.400000 0.000000
vt -0.777901 -0.800000 0.000000
vt -1.342470 -0.400000 0.000000
vt -1.526843 -0.800000 0.000000
vt -1.405003 -0.396442 0.000000
vt -1.466727 -0.385815 0.000000
vt -1.526843 -0.368255 0.000000
vt -0.662704 -0.327893 0.000000
vt -0.531053 -0.625014 0.000000
vt -0.549286 -0.242261 0.000000
vt -0.461599 -0.130479 0.000000
vt -0.271218 -0.469915 0.000000
vt -0.405489 0.000000 0.000000
vt -0.285344 0.490000 0.000000
vt -1.526843 7.522389 0.000000
vt -0.000000 -0.335658 0.000000
vt 0.000000 2.106315 0.000000
vt -1.526843 0.000000 0.000000
vt -0.000000 0.000000 0.000000
vt -0.482376 4.790000 0.000000
vt -1.121354 0.000000 0.000000
vt -1.241499 0.490000 0.000000
vt -1.255625 -0.469915 0.000000
vt -1.526843 -0.335658 0.000000
vt -1.526843 2.106315 0.000000
vt -0.000000 4.790000 0.000000
vt -1.065244 -0.130479 0.000000
vt -0.995790 -0.625014 0.000000
vt -0.977558 -0.242261 0.000000
vt -0.864140 -0.327893 0.000000
vt -0.748942 -0.800000 0.000000
vt -0.732551 -0.381668 0.000000
vt -0.591564 -0.400000 0.000000
vt -0.184373 -0.400000 0.000000
vt -0.000000 -0.800000 0.000000
vt -0.121840 -0.396442 0.000000
vt -0.060116 -0.385815 0.000000
vt 0.000000 -0.368255 0.000000
vt -2.343180 0.120591 0.000000
vt 7.735000 0.120591 0.000000
vt -2.665587 0.492631 0.000000
vt 2.395000 0.616645 0.000000
vt -3.011856 0.864672 0.000000
vt 2.395000 1.112699 0.000000
vt -3.374331 1.236712 0.000000
vt -3.745000 1.608753 0.000000
vt 8.535000 1.440955 0.000000
vt 5.985000 1.608753 0.000000
vt 8.535000 1.608753 0.000000
vt 7.735000 0.448846 0.000000
vt 7.735000 0.777102 0.000000
vt 7.735000 1.105358 0.000000
vt 8.535000 1.105358 0.000000
vt 8.535000 1.273156 0.000000
vt -0.968180 0.120591 0.000000
vt 2.708180 0.120591 0.000000
vt -1.290587 0.492631 0.000000
vt 3.030587 0.492631 0.000000
vt 3.376856 0.864672 0.000000
vt -1.636856 0.864672 0.000000
vt 3.739331 1.236712 0.000000
vt -1.999331 1.236712 0.000000
vt -2.370000 1.608753 0.000000
vt 4.110000 1.608753 0.000000
vt -2.745000 0.120591 0.000000
vt 7.333180 0.120591 0.000000
vt -2.745000 0.448846 0.000000
vt 2.595000 0.616645 0.000000
vt -2.745000 0.777102 0.000000
vt 2.595000 1.112699 0.000000
vt -2.745000 1.105358 0.000000
vt -3.545000 1.105358 0.000000
vt -3.545000 1.273156 0.000000
vt -3.545000 1.440955 0.000000
vt 2.595000 1.608753 0.000000
vt -3.545000 1.608753 0.000000
vt 7.655587 0.492631 0.000000
vt 8.001856 0.864672 0.000000
vt 8.364331 1.236712 0.000000
vt 8.735000 1.608753 0.000000
vt -1.526843 10.980000 0.000000
vt -1.526843 0.000000 0.000000
vt -1.026239 7.919379 0.000000
vt -1.004177 -0.042120 0.000000
vt -0.492071 -0.154700 0.000000
vt 0.000000 -0.335658 0.000000
vt -0.000000 2.106315 0.000000
vt -1.026239 10.980000 0.000000
vn 0.676065 0.000000 0.736842
vn 0.474978 0.000000 0.879998
vn 0.676065 0.000000 0.736842
vn 0.474978 0.000000 0.879998
vn 0.676065 0.000000 0.736842
vn 0.474978 0.000000 0.879998
vn 0.244951 0.000000 0.969535
vn 0.244951 0.000000 0.969535
vn 0.000000 0.000000 1.000000
vn 0.000000 0.000000 1.000000
vn 0.244951 0.000000 0.969535
vn 0.000000 0.000000 1.000000
vn -0.000000 0.000000 1.000000
vn -0.000000 0.000000 1.000000
vn -0.000000 0.000000 1.000000
vn -0.000000 0.000000 1.000000
vn -0.000000 0.000000 1.000000
vn -0.000000 0.000000 1.000000
vn -0.000000 0.000000 1.000000
vn -0.000000 0.000000 1.000000
vn -0.000000 0.000000 1.000000
vn 0.000000 1.000000 -0.000000
vn 0.000000 1.000000 -0.000000
vn 0.000000 1.000000 -0.000000
vn 0.000000 1.000000 -0.000000
vn 0.000000 1.000000 -0.000000
vn 0.000000 1.000000 -0.000000
vn 0.000000 1.000000 -0.000000
vn 0.000000 1.000000 -0.000000
vn 0.000000 1.000000 -0.000000
vn 0.000000 1.000000 -0.000000
vn 0.000000 1.000000 -0.000000
vn 0.000000 1.000000 -0.000000
vn 0.000000 1.000000 -0.000000
vn 0.000000 1.000000 -0.000000
vn 0.000000 1.000000 -0.000000
vn 0.000000 1.000000 -0.000000
vn -0.676065 -0.000000 0.736842
vn -0.676065 -0.000000 0.736842
vn -0.474978 -0.000000 0.879998
vn -0.474978 -0.000000 0.879998
vn -0.244951 -0.000000 0.969535
vn -0.244951 -0.000000 0.969535
vn -0.000000 0.000000 1.000000
vn -0.000000 0.000000 1.000000
vn -0.244951 -0.000000 0.969535
vn -0.474978 -0.000000 0.879998
vn -0.676065 -0.000000 0.736842
vn -0.000000 0.000000 1.000000
vn -0.000000 -0.000000 1.000000
vn -0.000000 -0.000000 1.000000
vn -0.000000 -0.000000 1.000000
vn -0.000000 -0.000000 1.000000
vn -0.000000 -0.000000 1.000000
vn -0.000000 -0.000000 1.000000
vn -0.000000 -0.000000 1.000000
vn -0.000000 -0.000000 1.000000
vn -0.000000 -0.000000 1.000000
vn 0.000000 0.272727 -0.962091
vn 0.000000 0.272727 -0.962091
vn 0.000000 0.492113 -0.870531
vn 0.000000 0.509962 -0.860197
vn 0.000000 0.683689 -0.729774
vn 0.000000 0.713201 -0.700959
vn 0.000000 0.836626 -0.547775
vn 0.000000 0.868896 -0.494994
vn 0.000000 0.942283 -0.334819
vn 0.000000 0.966669 -0.256031
vn 0.000000 0.974209 -0.225648
vn 0.000000 0.993531 -0.113559
vn 0.000000 1.000000 0.000000
vn 0.000000 1.000000 0.000000
vn 0.000000 1.000000 0.000000
vn 0.000000 1.000000 0.000000
vn 0.000000 0.974209 -0.225648
vn 0.000000 0.966669 -0.256031
vn 0.000000 0.942283 -0.334819
vn 0.000000 0.868896 -0.494994
vn 0.000000 0.836626 -0.547775
vn 0.000000 0.713201 -0.700959
vn 0.000000 0.683689 -0.729774
vn 0.000000 0.509962 -0.860197
vn 0.000000 0.492113 -0.870531
vn 0.000000 0.272727 -0.962091
vn 0.000000 0.272727 -0.962091
vn 0.000000 0.993531 -0.113559
vn -0.000000 1.000000 0.000000
vn -0.000000 1.000000 0.000000
vn 0.000000 0.272727 0.962091
vn 0.000000 0.272727 0.962091
vn 0.000000 0.509962 0.860197
vn 0.000000 0.509962 0.860197
vn 0.000000 0.713201 0.700959
vn 0.000000 0.713201 0.700959
vn 0.000000 0.868896 0.494994
vn 0.000000 0.868896 0.494994
vn 0.000000 0.966669 0.256031
vn 0.000000 0.966669 0.256031
vn -1.000000 -0.000000 -0.000000
vn -1.000000 -0.000000 -0.000000
vn -1.000000 -0.000000 -0.000000
vn -1.000000 -0.000000 -0.000000
vn -1.000000 -0.000000 -0.000000
vn -1.000000 -0.000000 -0.000000
vn -1.000000 -0.000000 -0.000000
vn -1.000000 -0.000000 -0.000000
vn -1.000000 -0.000000 -0.000000
vn -1.000000 -0.000000 -0.000000
vn -1.000000 -0.000000 -0.000000
vn -1.000000 -0.000000 -0.000000
vn 0.000000 0.272727 0.962091
vn 0.000000 0.509962 0.860197
vn 0.000000 0.272727 0.962091
vn 0.000000 0.509962 0.860197
vn 0.000000 0.713201 0.700959
vn 0.000000 0.713201 0.700959
vn 0.000000 0.868896 0.494994
vn 0.000000 0.868896 0.494994
vn 0.000000 0.966669 0.256031
vn 0.000000 0.966669 0.256031
vn 0.000000 1.000000 -0.000000
vn 0.000000 1.000000 -0.000000
vn 0.000000 0.000000 1.000000
vn 0.000000 0.000000 1.000000
vn 0.000000 0.000000 1.000000
vn 0.000000 0.000000 1.000000
vn 0.000000 0.000000 1.000000
vn 1.000000 0.000000 0.000000
vn 1.000000 0.000000 0.000000
vn 1.000000 0.000000 0.000000
vn 1.000000 0.000000 0.000000
vn 1.000000 0.000000 0.000000
vn 1.000000 0.000000 0.000000
vn 1.000000 0.000000 0.000000
vn 1.000000 0.000000 0.000000
vn 1.000000 0.000000 0.000000
vn 1.000000 0.000000 0.000000
vn 1.000000 0.000000 0.000000
vn 1.000000 0.000000 0.000000
vn 1.000000 0.000000 0.000000
vn 1.000000 0.000000 0.000000
vn 0.000000 0.000000 -1.000000
vn 0.000000 0.000000 -1.000000
vn 0.000000 0.000000 -1.000000
vn 0.000000 0.000000 -1.000000
vn 0.000000 0.000000 -1.000000
vn 0.000000 0.000000 -1.000000
vn 1.000000 0.000000 0.000000
vn 1.000000 0.000000 0.000000
vn 1.000000 0.000000 0.000000
vn 1.000000 0.000000 0.000000
vn 1.000000 0.000000 0.000000
vn 1.000000 0.000000 0.000000
vn 1.000000 0.000000 0.000000
vn 1.000000 0.000000 0.000000
vn 1.000000 0.000000 0.000000
vn 0.000000 -1.000000 0.000000
vn 0.000000 -1.000000 0.000000
vn 0.000000 -1.000000 0.000000
vn 0.000000 -1.000000 0.000000
vn 0.000000 -1.000000 0.000000
vn 0.000000 -1.000000 0.000000
vn 0.000000 -1.000000 0.000000
vn 0.000000 -1.000000 0.000000
vn 0.984808 0.173648 0.000000
vn 0.984808 0.173648 0.000000
vn 0.984808 0.173648 0.000000
vn 0.984808 0.173648 0.000000
vn 0.984808 0.173648 0.000000
vn 0.000000 1.000000 0.000000
vn 0.000000 1.000000 0.000000
vn 0.000000 1.000000 0.000000
vn 0.000000 1.000000 0.000000
vn -0.984808 0.173648 0.000000
vn -0.984808 0.173648 0.000000
vn -0.984808 0.173648 0.000000
vn -0.984808 0.173648 0.000000
vn -0.984808 0.173648 0.000000
vn -1.000000 0.000000 0.000000
vn -1.000000 0.000000 0.000000
vn -1.000000 0.000000 0.000000
vn -1.000000 0.000000 0.000000
vn -1.000000 0.000000 0.000000
vn -1.000000 0.000000 0.000000
vn -1.000000 0.000000 0.000000
vn -1.000000 0.000000 0.000000
vn -1.000000 0.000000 0.000000
vn -1.000000 0.000000 0.000000
vn -1.000000 0.000000 0.000000
vn -1.000000 0.000000 0.000000
vn -1.000000 0.000000 0.000000
vn -1.000000 0.000000 0.000000
vn -1.000000 0.000000 0.000000
vn -1.000000 0.000000 0.000000
vn -1.000000 0.000000 0.000000
vn -1.000000 0.000000 0.000000
vn -1.000000 0.000000 0.000000
vn -1.000000 0.000000 0.000000
vn -1.000000 0.000000 0.000000
vn -1.000000 0.000000 0.000000
vn -1.000000 0.000000 0.000000
vn -1.000000 0.000000 0.000000
vn -1.000000 0.000000 0.000000
vn -1.000000 0.000000 0.000000
vn -1.000000 0.000000 0.000000
vn -1.000000 0.000000 0.000000
vn -1.000000 0.000000 0.000000
vn -1.000000 0.000000 0.000000
vn -1.000000 0.000000 0.000000
vn -1.000000 0.000000 0.000000
vn 0.000000 1.000000 0.000000
vn 0.000000 1.000000 0.000000
vn 0.000000 1.000000 0.000000
vn 0.000000 1.000000 0.000000
vn -1.000000 0.000000 0.000000
vn -1.000000 0.000000 0.000000
vn -1.000000 0.000000 0.000000
vn -1.000000 0.000000 0.000000
vn 0.000000 0.000000 -1.000000
vn 0.000000 0.000000 -1.000000
vn 0.000000 0.000000 -1.000000
vn 0.000000 0.000000 -1.000000
vn 0.000000 0.000000 -1.000000
vn 0.000000 0.000000 -1.000000
vn 0.000000 0.000000 1.000000
vn 0.000000 0.000000 1.000000
vn 0.000000 0.000000 1.000000
vn 0.000000 0.000000 1.000000
vn 0.000000 0.000000 1.000000
vn 0.996754 -0.080502 0.000000
vn 0.996754 -0.080502 0.000000
vn 0.987039 -0.160482 0.000000
vn 0.987039 -0.160482 0.000000
vn 0.970916 -0.239420 0.000000
vn -0.970916 -0.239420 0.000000
vn -0.987039 -0.160482 0.000000
vn -0.987039 -0.160482 0.000000
vn -0.996754 -0.080502 0.000000
vn -0.996754 -0.080502 0.000000
vn -0.000000 0.173648 0.984808
vn -0.000000 0.173648 0.984808
vn -0.000000 0.173648 0.984808
vn -0.000000 0.173648 0.984808
vn -0.000000 0.173648 0.984808
vn -0.000000 0.173648 0.984808
vn -0.000000 0.173648 0.984808
vn -0.000000 0.173648 0.984808
vn -0.000000 -1.000000 0.000000
vn -0.000000 -1.000000 0.000000
vn -0.000000 -1.000000 0.000000
vn -1.000000 0.000000 -0.000000
vn -1.000000 0.000000 -0.000000
vn -1.000000 0.000000 -0.000000
vn -1.000000 0.000000 -0.000000
vn -1.000000 0.000000 -0.000000
vn 0.000000 0.173648 -0.984808
vn 0.000000 0.173648 -0.984808
vn 0.000000 0.173648 -0.984808
vn 0.000000 0.173648 -0.984808
vn 0.000000 0.173648 -0.984808
vn 0.000000 0.173648 -0.984808
vn 0.000000 0.173648 -0.984808
vn 0.000000 0.173648 -0.984808
vn 0.000000 0.173648 -0.984808
vn -0.000000 -0.000000 -1.000000
vn -0.000000 -0.000000 -1.000000
vn -0.000000 -0.000000 -1.000000
vn -0.000000 -0.000000 -1.000000
vn -0.000000 -0.000000 -1.000000
vn -0.000000 -0.000000 -1.000000
vn -0.000000 -0.000000 -1.000000
vn -0.000000 -0.000000 -1.000000
vn -0.000000 -0.000000 -1.000000
vn -0.000000 -0.000000 -1.000000
vn -0.000000 -0.000000 -1.000000
vn -0.000000 -0.000000 -1.000000
vn -0.000000 -0.000000 -1.000000
vn -0.000000 -0.000000 -1.000000
vn -0.000000 -0.000000 -1.000000
vn -0.000000 -0.000000 -1.000000
vn 0.000000 0.173648 -0.984808
vn 0.000000 0.173648 -0.984808
vn 0.000000 0.173648 -0.984808
vn 0.000000 0.173648 -0.984808
vn 0.000000 0.173648 -0.984808
vn 0.000000 0.173648 -0.984808
vn 0.000000 0.173648 -0.984808
vn 0.000000 0.173648 -0.984808
vn -0.000000 0.173648 0.984808
vn -0.000000 0.173648 0.984808
vn -0.000000 0.173648 0.984808
vn -0.000000 0.173648 0.984808
vn -0.000000 0.173648 0.984808
vn -0.000000 0.173648 0.984808
vn -0.000000 0.173648 0.984808
vn -0.000000 0.173648 0.984808
vn 0.000000 -1.000000 0.000000
vn 0.000000 -1.000000 0.000000
vn 0.000000 -1.000000 0.000000
vn 0.000000 -1.000000 0.000000
vn 0.000000 -1.000000 0.000000
vn 0.000000 -1.000000 0.000000
vn 0.000000 -1.000000 0.000000
vn 0.000000 -1.000000 0.000000
vn 0.000000 -1.000000 0.000000
vn 0.000000 -1.000000 0.000000
vn 1.000000 -0.000000 -0.000000
vn 1.000000 -0.000000 -0.000000
vn 1.000000 -0.000000 -0.000000
vn 1.000000 -0.000000 -0.000000
vn 0.000000 -1.000000 0.000000
vn 0.000000 -1.000000 0.000000
vn 0.000000 -1.000000 0.000000
vn 0.000000 -1.000000 0.000000
vn 0.000000 -1.000000 0.000000
vn 0.000000 -1.000000 0.000000
vn 0.000000 -1.000000 0.000000
vn 0.000000 -1.000000 0.000000
vn 0.000000 -1.000000 0.000000
vn 0.000000 -1.000000 0.000000
vn 0.000000 -1.000000 0.000000
vn 0.000000 -1.000000 0.000000
vn -0.000000 -1.000000 0.000000
vn -0.000000 -1.000000 0.000000
vn -0.000000 -1.000000 0.000000
vn -0.000000 -1.000000 0.000000
vn -0.000000 -1.000000 0.000000
vn -0.000000 -1.000000 0.000000
vn -0.000000 -1.000000 0.000000
vn 0.000000 -1.000000 0.000000
vn 0.000000 -1.000000 0.000000
vn 0.000000 -1.000000 0.000000
vn 0.000000 -1.000000 0.000000
vn 0.000000 -1.000000 0.000000
vn 0.000000 -1.000000 0.000000
vn 0.000000 -1.000000 0.000000
vn -0.000000 -0.000000 -1.000000
vn -0.000000 -0.000000 -1.000000
vn -0.000000 -0.000000 -1.000000
vn -0.000000 -0.000000 -1.000000
vn -0.000000 -0.000000 -1.000000
vn -0.000000 -0.000000 -1.000000
vn -0.000000 -0.000000 -1.000000
vn -0.000000 -0.000000 -1.000000
vn -0.000000 -0.000000 -1.000000
vn -0.000000 -0.000000 -1.000000
vn -0.000000 -0.000000 -1.000000
vn -0.000000 -0.000000 -1.000000
vn 0.998793 -0.000000 0.049121
vn 0.998793 -0.000000 0.049121
vn 0.998793 -0.000000 0.049121
vn 0.998793 -0.000000 0.049121
vn 0.998793 -0.000000 0.049121
vn 0.998793 -0.000000 0.049121
vn 0.998793 -0.000000 0.049121
vn 0.998793 -0.000000 0.049121
vn 0.000000 -0.877867 -0.478905
vn 0.000000 -0.879736 -0.475462
vn 0.000000 -0.912739 -0.408543
vn 0.000000 -0.944583 -0.328272
vn 0.000000 -0.959741 -0.280887
vn 0.000000 -0.984994 -0.172589
vn 0.000000 -0.988982 -0.148033
vn 0.000000 -0.999923 -0.012441
vn 0.000000 -0.999923 -0.012440
vn 0.000000 -0.999923 -0.012440
vn 0.000000 -0.837581 -0.546313
vn 0.000000 -0.792130 -0.610352
vn 0.000000 -0.792130 -0.610352
vn 0.000000 -0.999923 -0.012440
vn 0.000000 -0.999923 -0.012441
vn 0.000000 -0.999923 -0.012440
vn 0.000000 -0.988982 -0.148033
vn 0.000000 -0.984176 -0.177196
vn 0.000000 -0.959741 -0.280887
vn 0.000000 -0.941470 -0.337097
vn 0.000000 -0.912739 -0.408544
vn 0.000000 -0.872975 -0.487764
vn 0.000000 -0.877867 -0.478905
vn 0.000000 -0.848041 -0.529931
vn 0.000000 -0.837581 -0.546313
vn 0.000000 -0.821071 -0.570826
vn 0.000000 -0.792130 -0.610352
vn 0.000000 -0.792130 -0.610352
vn 0.000000 -0.872975 -0.487764
vn 1.000000 -0.000000 -0.000000
vn 1.000000 -0.000000 -0.000000
vn 1.000000 -0.000000 -0.000000
vn 1.000000 -0.000000 -0.000000
vn 1.000000 -0.000000 -0.000000
vn 1.000000 -0.000000 -0.000000
vn 1.000000 -0.000000 -0.000000
vn 1.000000 -0.000000 -0.000000
vn -0.000000 -1.000000 -0.000000
vn -0.000000 -1.000000 -0.000000
vn -0.000000 -1.000000 -0.000000
vn -0.000000 -1.000000 -0.000000
vn -0.000000 -1.000000 -0.000000
vn -0.000000 -1.000000 -0.000000
vn -0.000000 -1.000000 -0.000000
vn -1.000000 -0.000000 0.000000
vn -1.000000 -0.000000 0.000000
vn -1.000000 -0.000000 0.000000
vn -1.000000 -0.000000 0.000000
vn -1.000000 -0.000000 0.000000
vn -1.000000 -0.000000 0.000000
vn -1.000000 -0.000000 0.000000
vn -1.000000 -0.000000 0.000000
vn 0.000000 -1.000000 0.000000
vn 0.000000 -1.000000 0.000000
vn 0.000000 -1.000000 0.000000
vn 0.000000 -1.000000 0.000000
vn 0.000000 -1.000000 0.000000
vn 0.000000 -1.000000 0.000000
vn 0.000000 -1.000000 0.000000
vn 0.000000 -1.000000 0.000000
vn 0.000000 -1.000000 0.000000
vn 0.000000 -1.000000 0.000000
vn 0.000000 -1.000000 0.000000
vn 0.000000 -1.000000 0.000000
vn 0.000000 -1.000000 0.000000
vn 1.000000 0.000000 0.000000
vn 1.000000 0.000000 0.000000
vn 1.000000 0.000000 0.000000
vn 1.000000 0.000000 0.000000
vn -1.000000 -0.000000 0.000000
vn -1.000000 -0.000000 0.000000
vn -1.000000 -0.000000 0.000000
vn -1.000000 -0.000000 0.000000
vn -0.000000 -0.000000 1.000000
vn -0.000000 -0.000000 1.000000
vn -0.000000 -0.000000 1.000000
vn -0.000000 -0.000000 1.000000
vn 0.998793 -0.000000 -0.049121
vn 0.998793 -0.000000 -0.049121
vn 0.998793 -0.000000 -0.049121
vn 0.998793 -0.000000 -0.049121
vn 0.998793 -0.000000 -0.049121
vn 0.998793 -0.000000 -0.049121
vn 0.998793 -0.000000 -0.049121
vn 0.998793 -0.000000 -0.049121
vn 0.998793 -0.000000 -0.049121
vn 0.998793 -0.000000 -0.049121
vn 0.998793 -0.000000 -0.049121
vn 0.998793 -0.000000 -0.049121
vn 0.998793 -0.000000 -0.049121
vn 0.998793 -0.000000 -0.049121
vn 0.998793 -0.000000 -0.049121
vn 0.998793 -0.000000 -0.049121
vn 0.998793 -0.000000 -0.049121
vn 0.998793 -0.000000 -0.049121
vn 0.998793 -0.000000 -0.049121
vn -0.998793 0.000000 -0.049121
vn -0.998793 0.000000 -0.049121
vn -0.998793 0.000000 -0.049121
vn -0.998793 0.000000 -0.049121
vn -0.998793 0.000000 -0.049121
vn -0.998793 0.000000 -0.049121
vn -0.998793 0.000000 -0.049121
vn -0.998793 0.000000 -0.049121
vn -0.998793 0.000000 -0.049121
vn -0.998793 0.000000 -0.049121
vn -0.998793 0.000000 -0.049121
vn -0.998793 0.000000 -0.049121
vn -0.998793 0.000000 -0.049121
vn -0.998793 0.000000 -0.049121
vn -0.998793 0.000000 -0.049121
vn -0.998793 0.000000 -0.049121
vn -0.998793 0.000000 -0.049121
vn -0.998793 0.000000 -0.049121
vn -0.998793 0.000000 -0.049121
vn -0.998793 0.000000 -0.049121
vn -0.560728 -0.000000 0.828000
vn -0.560728 -0.000000 0.828000
vn -0.431765 -0.000000 0.901986
vn -0.386509 -0.000000 0.922286
vn -0.293258 -0.000000 0.956033
vn -0.197122 -0.000000 0.980379
vn -0.148268 -0.000000 0.988947
vn -0.000000 -0.000000 1.000000
vn -0.067069 -0.000000 0.997748
vn -0.447495 -0.000000 0.894286
vn -0.326559 -0.000000 0.945177
vn -0.200000 -0.000000 0.979796
vn -0.200000 -0.000000 0.979796
vn -0.133836 -0.000000 0.991004
vn 0.000000 -0.560728 0.828000
vn 0.000000 -0.560728 0.828000
vn 0.000000 -0.431765 0.901986
vn 0.000000 -0.431765 0.901986
vn 0.000000 -0.293258 0.956033
vn 0.000000 -0.293258 0.956033
vn 0.000000 -0.148268 0.988947
vn 0.000000 -0.148268 0.988947
vn 0.000000 -0.000000 1.000000
vn 0.560728 0.000000 0.828000
vn 0.560728 0.000000 0.828000
vn 0.447495 0.000000 0.894286
vn 0.386509 0.000000 0.922286
vn 0.326559 0.000000 0.945177
vn 0.197122 0.000000 0.980379
vn 0.200000 0.000000 0.979796
vn 0.200000 0.000000 0.979796
vn 0.133836 0.000000 0.991004
vn 0.067069 0.000000 0.997748
vn 0.000000 0.000000 1.000000
vn 0.000000 0.000000 1.000000
vn 0.431765 0.000000 0.901986
vn 0.293258 0.000000 0.956033
vn 0.148268 0.000000 0.988947
vn -0.998793 -0.000000 0.049121
vn -0.998793 -0.000000 0.049121
vn -0.998793 -0.000000 0.049121
vn -0.998793 -0.000000 0.049121
vn -0.998793 -0.000000 0.049121
vn -0.998793 -0.000000 0.049121
vn -0.998793 -0.000000 0.049121
vn -0.998793 -0.000000 0.049121
usemtl Stahl_-_satiniert
f 1/1/1 2/2/2 10/3/3
f 10/3/3 2/2/2 11/4/4
f 10/3/3 11/4/4 9/5/5
f 9/5/5 11/4/4 8/6/6
f 8/6/6 11/4/4 7/7/7
f 7/7/7 11/4/4 12/8/8
f 7/7/7 12/8/8 6/9/9
f 6/9/9 12/8/8 5/10/10
f 5/10/10 12/8/8 3/11/11
f 5/10/10 3/11/11 4/12/12
f 11/4/4 2/2/2 12/8/8
f 12/8/8 2/2/2 3/11/11
f 21/13/13 6/14/9 20/15/14
f 20/15/14 6/14/9 5/16/10
f 20/15/14 5/16/10 18/17/15
f 18/17/15 5/16/10 17/18/16
f 17/18/16 5/16/10 4/19/12
f 17/18/16 4/19/12 13/20/17
f 13/20/17 14/21/18 17/18/16
f 17/18/16 14/21/18 16/22/19
f 16/22/19 14/21/18 15/23/20
f 18/17/15 19/24/21 20/15/14
f 23/25/22 13/26/23 22/27/24
f 22/27/24 13/26/23 1/28/25
f 22/27/24 1/28/25 26/29/26
f 13/26/23 23/25/22 32/30/27
f 32/30/27 23/25/22 24/31/28
f 32/30/27 24/31/28 31/32/29
f 31/32/29 24/31/28 30/33/30
f 30/33/30 24/31/28 25/34/31
f 30/33/30 25/34/31 26/29/26
f 26/29/26 25/34/31 22/27/24
f 3/35/32 2/36/33 4/37/34
f 4/37/34 2/36/33 13/26/23
f 13/26/23 2/36/33 1/28/25
f 26/29/26 27/38/35 30/33/30
f 30/33/30 27/38/35 29/39/36
f 29/39/36 27/38/35 28/40/37
f 38/41/38 33/42/39 39/43/40
f 39/43/40 33/42/39 34/44/41
f 39/43/40 34/44/41 40/45/42
f 40/45/42 34/44/41 35/46/43
f 40/45/42 35/46/43 36/47/44
f 36/47/44 37/48/45 40/45/42
f 40/45/42 37/48/45 28/49/46
f 40/45/42 28/49/46 39/43/40
f 39/43/40 28/49/46 27/50/47
f 39/43/40 27/50/47 38/41/38
f 38/41/38 27/50/47 26/51/48
f 37/48/45 29/52/49 28/49/46
f 30/53/50 29/54/49 45/55/51
f 45/55/51 29/54/49 37/56/45
f 45/55/51 37/56/45 44/57/52
f 44/57/52 37/56/45 42/58/53
f 44/57/52 42/58/53 43/59/54
f 37/56/45 36/60/44 42/58/53
f 42/58/53 36/60/44 41/61/55
f 30/53/50 45/55/51 48/62/56
f 48/62/56 45/55/51 46/63/57
f 48/62/56 46/63/57 47/64/58
f 62/65/59 49/66/60 61/67/61
f 61/67/61 49/66/60 50/68/62
f 61/67/61 50/68/62 60/69/63
f 60/69/63 50/68/62 51/70/64
f 60/69/63 51/70/64 59/71/65
f 59/71/65 51/70/64 52/72/66
f 59/71/65 52/72/66 58/73/67
f 58/73/67 52/72/66 53/74/68
f 58/73/67 53/74/68 57/75/69
f 57/75/69 53/74/68 56/76/70
f 56/76/70 53/74/68 54/77/71
f 56/76/70 54/77/71 55/78/72
f 55/79/72 54/80/71 64/81/73
f 64/81/73 54/80/71 63/82/74
f 66/83/75 70/84/76 65/85/77
f 65/85/77 70/84/76 71/86/78
f 65/85/77 71/86/78 78/87/79
f 78/87/79 71/86/78 72/88/80
f 78/87/79 72/88/80 77/89/81
f 77/89/81 72/88/80 73/90/82
f 77/89/81 73/90/82 76/91/83
f 76/91/83 73/90/82 74/92/84
f 76/91/83 74/92/84 75/93/85
f 66/83/75 67/94/86 70/84/76
f 70/84/76 67/94/86 69/95/87
f 69/95/87 67/94/86 68/96/88
f 88/97/89 79/98/90 87/99/91
f 87/99/91 79/98/90 80/100/92
f 87/99/91 80/100/92 86/101/93
f 86/101/93 80/100/92 81/102/94
f 86/101/93 81/102/94 85/103/95
f 85/103/95 81/102/94 82/104/96
f 85/103/95 82/104/96 84/105/97
f 84/105/97 82/104/96 83/106/98
f 84/105/97 83/106/98 63/107/74
f 63/107/74 83/106/98 64/108/73
f 53/109/99 52/110/100 54/111/101
f 54/111/101 52/110/100 63/112/102
f 63/112/102 52/110/100 85/113/103
f 63/112/102 85/113/103 84/114/104
f 85/113/103 52/110/100 86/115/105
f 86/115/105 52/110/100 51/116/106
f 86/115/105 51/116/106 87/117/107
f 87/117/107 51/116/106 50/118/108
f 87/117/107 50/118/108 88/119/109
f 88/119/109 50/118/108 49/120/110
f 89/121/111 90/122/112 100/123/113
f 100/123/113 90/122/112 99/124/114
f 99/124/114 90/122/112 91/125/115
f 99/124/114 91/125/115 98/126/116
f 98/126/116 91/125/115 92/127/117
f 98/126/116 92/127/117 97/128/118
f 97/128/118 92/127/117 93/129/119
f 97/128/118 93/129/119 96/130/120
f 96/130/120 93/129/119 94/131/121
f 96/130/120 94/131/121 95/132/122
f 101/133/123 102/134/124 105/135/125
f 105/135/125 102/134/124 103/136/126
f 105/135/125 103/136/126 104/137/127
f 106/138/128 107/139/129 101/140/130
f 101/140/130 107/139/129 32/141/131
f 32/141/131 107/139/129 108/142/132
f 32/141/131 108/142/132 13/143/133
f 13/143/133 108/142/132 14/144/134
f 109/145/135 110/146/136 103/147/137
f 103/147/137 110/146/136 104/148/138
f 104/148/138 110/146/136 111/149/139
f 104/148/138 111/149/139 112/150/140
f 112/150/140 113/151/141 104/148/138
f 113/152/142 112/153/143 117/154/144
f 117/154/144 112/153/143 114/155/145
f 117/154/144 114/155/145 116/156/146
f 116/156/146 114/155/145 115/157/147
f 115/158/148 114/159/149 122/160/150
f 122/160/150 114/159/149 118/161/151
f 122/160/150 118/161/151 121/162/152
f 121/162/152 118/161/151 119/163/153
f 121/162/152 119/163/153 20/164/154
f 20/164/154 119/163/153 21/165/155
f 21/165/155 119/163/153 120/166/156
f 123/167/157 109/168/158 127/169/159
f 127/169/159 109/168/158 102/170/160
f 127/169/159 102/170/160 124/171/161
f 109/168/158 103/172/162 102/170/160
f 124/171/161 125/173/163 127/169/159
f 127/169/159 125/173/163 126/174/164
f 106/175/165 101/176/166 116/177/167
f 116/177/167 101/176/166 105/178/168
f 116/177/167 105/178/168 117/179/169
f 117/180/170 105/181/171 113/182/172
f 113/182/172 105/181/171 104/183/173
f 129/184/174 130/185/175 128/186/176
f 128/186/176 130/185/175 131/187/177
f 128/186/176 131/187/177 132/188/178
f 145/189/179 132/190/180 143/191/181
f 143/191/181 132/190/180 131/192/182
f 143/191/181 131/192/182 142/193/183
f 142/193/183 131/192/182 74/194/184
f 142/193/183 74/194/184 73/195/185
f 131/192/182 133/196/186 74/194/184
f 73/195/185 72/197/187 142/193/183
f 142/193/183 72/197/187 71/198/188
f 142/193/183 71/198/188 70/199/189
f 70/199/189 69/200/190 142/193/183
f 142/193/183 69/200/190 141/201/191
f 141/201/191 69/200/190 94/202/192
f 141/201/191 94/202/192 93/203/193
f 93/203/193 92/204/194 141/201/191
f 141/201/191 92/204/194 91/205/195
f 141/201/191 91/205/195 140/206/196
f 140/206/196 91/205/195 90/207/197
f 140/206/196 90/207/197 89/208/198
f 134/209/199 135/210/200 89/208/198
f 89/208/198 135/210/200 140/206/196
f 140/206/196 135/210/200 139/211/201
f 139/211/201 135/210/200 136/212/202
f 139/211/201 136/212/202 138/213/203
f 138/213/203 136/212/202 42/214/204
f 138/213/203 42/214/204 41/215/205
f 41/215/205 137/216/206 138/213/203
f 143/191/181 31/217/207 145/189/179
f 145/189/179 31/217/207 144/218/208
f 144/218/208 31/217/207 30/219/209
f 144/218/208 30/219/209 48/220/210
f 130/221/211 129/222/212 147/223/213
f 147/223/213 129/222/212 146/224/214
f 148/225/215 149/226/216 146/227/217
f 146/227/217 149/226/216 147/228/218
f 148/229/219 129/230/220 89/231/221
f 89/231/221 129/230/220 128/232/222
f 89/231/221 128/232/222 134/233/223
f 148/229/219 146/234/224 129/230/220
f 147/235/225 149/236/226 130/237/227
f 130/237/227 149/236/226 133/238/228
f 130/237/227 133/238/228 131/239/229
f 121/240/152 20/241/154 151/242/230
f 151/242/230 20/241/154 19/243/231
f 151/242/230 19/243/231 150/244/232
f 150/244/232 19/243/231 18/245/233
f 150/244/232 18/245/233 17/246/234
f 45/247/235 44/248/236 153/249/237
f 153/249/237 44/248/236 43/250/238
f 153/249/237 43/250/238 152/251/239
f 152/251/239 43/250/238 42/252/204
f 152/251/239 42/252/204 136/253/202
f 154/254/240 121/255/241 16/256/242
f 16/256/242 121/255/241 151/257/243
f 16/256/242 151/257/243 150/258/244
f 155/259/245 122/260/246 154/254/240
f 154/254/240 122/260/246 121/255/241
f 150/258/244 17/261/247 16/256/242
f 156/262/248 157/263/249 158/264/250
f 156/265/251 158/266/252 161/267/253
f 161/267/253 158/266/252 160/268/254
f 160/268/254 158/266/252 159/269/255
f 156/270/256 161/271/257 157/272/258
f 157/272/258 161/271/257 107/273/259
f 157/272/258 107/273/259 106/274/260
f 116/275/261 115/276/262 106/274/260
f 106/274/260 115/276/262 155/277/263
f 106/274/260 155/277/263 157/272/258
f 115/276/262 122/278/264 155/277/263
f 108/279/265 107/280/266 169/281/267
f 169/281/267 107/280/266 161/282/268
f 169/281/267 161/282/268 163/283/269
f 163/283/269 161/282/268 162/284/270
f 162/284/270 161/282/268 160/285/271
f 169/281/267 163/283/269 23/286/272
f 23/286/272 163/283/269 164/287/273
f 23/286/272 164/287/273 24/288/274
f 24/288/274 164/287/273 168/289/275
f 168/289/275 164/287/273 167/290/276
f 168/289/275 167/290/276 144/291/277
f 144/291/277 167/290/276 145/292/278
f 164/287/273 165/293/279 167/290/276
f 167/290/276 165/293/279 166/294/280
f 171/295/281 132/296/282 170/297/283
f 170/297/283 132/296/282 145/298/284
f 170/297/283 145/298/284 167/299/285
f 135/300/286 134/301/287 171/295/281
f 171/295/281 134/301/287 132/296/282
f 134/301/287 128/302/288 132/296/282
f 46/303/289 136/304/290 172/305/291
f 172/305/291 136/304/290 135/306/292
f 172/305/291 135/306/292 171/307/293
f 45/308/294 153/309/295 46/303/289
f 46/303/289 153/309/295 152/310/296
f 46/303/289 152/310/296 136/304/290
f 62/311/297 160/312/298 49/313/299
f 49/313/299 160/312/298 159/314/300
f 49/313/299 159/314/300 88/315/301
f 88/315/301 159/314/300 79/316/302
f 173/317/303 174/318/304 62/311/297
f 62/311/297 174/318/304 160/312/298
f 174/318/304 175/319/305 160/312/298
f 160/312/298 175/319/305 162/320/306
f 68/321/88 95/322/122 69/323/87
f 69/323/87 95/322/122 94/324/121
f 176/325/307 170/326/308 166/327/309
f 166/327/309 170/326/308 167/328/310
f 48/329/311 47/330/312 144/331/313
f 144/331/313 47/330/312 168/332/314
f 168/332/314 47/330/312 180/333/315
f 180/333/315 47/330/312 177/334/316
f 180/333/315 177/334/316 178/335/317
f 180/333/315 178/335/317 179/336/318
f 179/336/318 178/335/317 15/337/319
f 179/336/318 15/337/319 169/338/320
f 169/338/320 15/337/319 108/339/321
f 108/339/321 15/337/319 14/340/322
f 181/341/323 9/342/324 120/343/325
f 120/343/325 9/342/324 8/344/326
f 120/343/325 8/344/326 7/345/327
f 7/345/327 6/346/328 120/343/325
f 120/343/325 6/346/328 21/347/329
f 41/348/330 36/349/331 137/350/332
f 137/350/332 36/349/331 35/351/333
f 137/350/332 35/351/333 34/352/334
f 34/352/334 33/353/335 137/350/332
f 137/350/332 33/353/335 182/354/336
f 33/355/337 38/356/338 182/357/339
f 182/357/339 38/356/338 184/358/340
f 184/358/340 38/356/338 177/359/341
f 177/359/341 38/356/338 26/360/342
f 177/359/341 26/360/342 1/361/343
f 177/359/341 1/361/343 178/362/344
f 178/362/344 1/361/343 10/363/345
f 178/362/344 10/363/345 183/364/346
f 183/364/346 10/363/345 181/365/347
f 181/365/347 10/363/345 9/366/348
f 185/367/349 186/368/350 172/369/351
f 172/369/351 186/368/350 46/370/352
f 46/370/352 186/368/350 187/371/353
f 46/370/352 187/371/353 184/372/354
f 184/372/354 177/373/355 46/370/352
f 46/370/352 177/373/355 47/374/356
f 188/375/357 140/376/358 185/377/359
f 185/377/359 140/376/358 139/378/360
f 185/377/359 139/378/360 186/379/361
f 186/379/361 139/378/360 138/380/362
f 186/379/361 138/380/362 187/381/363
f 187/381/363 138/380/362 137/382/364
f 187/381/363 137/382/364 184/383/365
f 184/383/365 137/382/364 182/384/366
f 188/375/357 189/385/367 140/376/358
f 140/376/358 189/385/367 141/386/368
f 141/386/368 189/385/367 190/387/369
f 181/388/370 120/389/371 183/390/372
f 183/390/372 120/389/371 195/391/373
f 195/391/373 120/389/371 119/392/374
f 195/391/373 119/392/374 194/393/375
f 194/393/375 119/392/374 118/394/376
f 194/393/375 118/394/376 193/395/377
f 193/395/377 118/394/376 114/396/378
f 193/395/377 114/396/378 192/397/379
f 192/397/379 114/396/378 111/398/380
f 192/397/379 111/398/380 191/399/381
f 191/399/381 111/398/380 110/400/382
f 191/399/381 110/400/382 123/401/383
f 123/401/383 110/400/382 109/402/384
f 114/396/378 112/403/385 111/398/380
f 75/404/386 196/405/387 76/406/388
f 76/406/388 196/405/387 197/407/389
f 76/406/388 197/407/389 77/408/390
f 77/408/390 197/407/389 78/409/391
f 78/409/391 197/407/389 198/410/392
f 78/409/391 198/410/392 65/411/393
f 197/412/394 199/413/395 198/414/396
f 198/414/396 199/413/395 190/415/397
f 190/415/397 199/413/395 200/416/398
f 190/415/397 200/416/398 141/417/399
f 141/417/399 200/416/398 142/418/400
f 173/419/401 61/420/402 126/421/403
f 126/421/403 61/420/402 60/422/404
f 126/421/403 60/422/404 59/423/405
f 173/419/401 62/424/406 61/420/402
f 58/425/407 127/426/408 59/423/405
f 59/423/405 127/426/408 126/421/403
f 74/427/409 133/428/410 75/429/411
f 75/429/411 133/428/410 166/430/412
f 75/429/411 166/430/412 202/431/413
f 202/431/413 166/430/412 201/432/414
f 201/432/414 166/430/412 165/433/415
f 149/434/416 148/435/417 133/428/410
f 133/428/410 148/435/417 89/436/418
f 133/428/410 89/436/418 176/437/419
f 176/437/419 89/436/418 100/438/420
f 176/437/419 166/430/412 133/428/410
f 202/431/413 196/439/421 75/429/411
f 168/440/422 180/441/423 24/442/424
f 24/442/424 180/441/423 25/443/425
f 179/444/426 169/445/427 22/446/428
f 22/446/428 169/445/427 23/447/429
f 180/448/430 179/449/431 25/450/432
f 25/450/432 179/449/431 22/451/433
f 96/452/434 95/453/435 190/454/436
f 190/454/436 95/453/435 68/455/437
f 190/454/436 68/455/437 198/456/438
f 198/456/438 68/455/437 67/457/439
f 198/456/438 67/457/439 66/458/440
f 66/458/440 65/459/441 198/456/438
f 96/452/434 190/454/436 97/460/442
f 97/460/442 190/454/436 189/461/443
f 97/460/442 189/461/443 98/462/444
f 98/462/444 189/461/443 99/463/445
f 99/463/445 189/461/443 188/464/446
f 99/463/445 188/464/446 100/465/447
f 100/465/447 188/464/446 171/466/448
f 100/465/447 171/466/448 170/467/449
f 188/464/446 185/468/450 171/466/448
f 171/466/448 185/468/450 172/469/451
f 170/467/449 176/470/452 100/465/447
f 159/471/453 157/472/454 79/473/455
f 79/473/455 157/472/454 155/474/456
f 79/473/455 155/474/456 192/475/457
f 192/475/457 155/474/456 193/476/458
f 193/476/458 155/474/456 154/477/459
f 159/471/453 158/478/460 157/472/454
f 79/473/455 192/475/457 80/479/461
f 80/479/461 192/475/457 191/480/462
f 80/479/461 191/480/462 81/481/463
f 81/481/463 191/480/462 82/482/464
f 82/482/464 191/480/462 123/483/465
f 82/482/464 123/483/465 83/484/466
f 83/484/466 123/483/465 64/485/467
f 64/485/467 123/483/465 55/486/468
f 55/486/468 123/483/465 127/487/469
f 55/486/468 127/487/469 56/488/470
f 56/488/470 127/487/469 57/489/471
f 57/489/471 127/487/469 58/490/472
f 163/491/473 162/492/474 205/493/475
f 205/493/475 162/492/474 207/494/476
f 205/493/475 207/494/476 204/495/477
f 204/495/477 207/494/476 206/496/478
f 204/495/477 206/496/478 203/497/479
f 203/497/479 206/496/478 32/498/480
f 32/498/480 206/496/478 124/499/481
f 32/498/480 124/499/481 101/500/123
f 101/500/123 124/499/481 102/501/124
f 162/492/474 175/502/482 207/494/476
f 207/494/476 175/502/482 174/503/483
f 207/494/476 174/503/483 206/496/478
f 206/496/478 174/503/483 173/504/484
f 206/496/478 173/504/484 126/505/485
f 126/505/485 125/506/486 206/496/478
f 206/496/478 125/506/486 124/499/481
f 164/507/487 163/508/488 210/509/489
f 210/509/489 163/508/488 205/510/490
f 210/509/489 205/510/490 204/511/491
f 210/509/489 204/511/491 209/512/492
f 209/512/492 204/511/491 203/513/493
f 209/512/492 203/513/493 208/514/494
f 208/514/494 203/513/493 31/515/495
f 31/515/495 203/513/493 32/516/480
f 165/517/496 164/518/497 201/519/498
f 201/519/498 164/518/497 212/520/499
f 201/519/498 212/520/499 202/521/500
f 202/521/500 212/520/499 211/522/501
f 202/521/500 211/522/501 196/523/502
f 196/523/502 211/522/501 197/524/503
f 197/524/503 211/522/501 199/525/504
f 199/525/504 211/522/501 200/526/505
f 200/526/505 211/522/501 143/527/506
f 200/526/505 143/527/506 142/528/507
f 164/518/497 210/529/508 212/520/499
f 212/520/499 210/529/508 209/530/509
f 212/520/499 209/530/509 211/522/501
f 211/522/501 209/530/509 208/531/510
f 211/522/501 208/531/510 143/527/506
f 143/527/506 208/531/510 31/532/495
f 178/533/511 183/534/512 16/535/513
f 16/535/513 183/534/512 195/536/514
f 16/535/513 195/536/514 194/537/515
f 193/538/516 154/539/517 194/537/515
f 194/537/515 154/539/517 16/535/513
f 16/535/513 15/540/518 178/533/511
# 212 vertices
# 540 texture params
# 518 normals
# 436 facets

# 1 groups
